# 3D ULPIN Building Export (Local Metric Units)
# Building ID: bldg-cyber-hub-001
# Height: 70.0m, Floors: 20
mtllib cyber_hub_gurugram.mtl

o bldg-cyber-hub-001

v -82.851 0.000 88.659
v -82.460 0.000 -86.050
v 115.915 0.000 -111.065
v 73.407 0.000 88.659
v -64.361 0.000 -59.476
v 40.349 0.000 79.274
v -82.851 70.000 88.659
v -82.460 70.000 -86.050
v 115.915 70.000 -111.065
v 73.407 70.000 88.659
v -64.361 70.000 -59.476
v 40.349 70.000 79.274

usemtl BuildingWall
# Walls (side faces)
f 1 2 8 7
f 2 3 9 8
f 3 4 10 9
f 4 5 11 10
f 5 6 12 11
f 6 1 7 12

usemtl BuildingFloor
# Floor (ground face)
f 1 2 3 4 5 6

usemtl BuildingRoof
# Roof (top face)
f 7 8 9 10 11 12