# 3D ULPIN Building Export
# Building ID: bldg-export-test-001
# Height: 14.0m

o bldg-export-test-001

v 77.228394 0.0 28.614062
v 77.228663 0.0 28.613903
v 77.228394 0.0 28.613875
v 77.228619 0.0 28.612529
v 77.230031 0.0 28.612710
v 77.230208 0.0 28.613162
v 77.230031 0.0 28.612978
v 77.229987 0.0 28.613215
v 77.230450 0.0 28.613123
v 77.230450 0.0 28.614062
v 77.230337 0.0 28.613854
v 77.228394 14.00 28.614062
v 77.228663 14.00 28.613903
v 77.228394 14.00 28.613875
v 77.228619 14.00 28.612529
v 77.230031 14.00 28.612710
v 77.230208 14.00 28.613162
v 77.230031 14.00 28.612978
v 77.229987 14.00 28.613215
v 77.230450 14.00 28.613123
v 77.230450 14.00 28.614062
v 77.230337 14.00 28.613854

# Walls (side faces)
f 1 2 13 12
f 2 3 14 13
f 3 4 15 14
f 4 5 16 15
f 5 6 17 16
f 6 7 18 17
f 7 8 19 18
f 8 9 20 19
f 9 10 21 20
f 10 11 22 21
f 11 1 12 22
# Floor (ground face)
f 1 2 3 4 5 6 7 8 9 10 11
# Roof (top face)
f 12 13 14 15 16 17 18 19 20 21 22