# 3D ULPIN Building Export (Local Metric Units)
# Building ID: bldg-narela-gps-001
# Height: 17.5m, Floors: 5
mtllib narela_gps.mtl

o bldg-narela-gps-001

v -101.338 0.000 82.581
v -117.026 0.000 -116.469
v 56.358 0.000 -116.469
v 83.424 0.000 32.329
v -4.842 0.000 35.446
v 83.424 0.000 82.581
v -101.338 17.500 82.581
v -117.026 17.500 -116.469
v 56.358 17.500 -116.469
v 83.424 17.500 32.329
v -4.842 17.500 35.446
v 83.424 17.500 82.581

usemtl BuildingWall
# Walls (side faces)
f 1 2 8 7
f 2 3 9 8
f 3 4 10 9
f 4 5 11 10
f 5 6 12 11
f 6 1 7 12

usemtl BuildingFloor
# Floor (ground face)
f 1 2 3 4 5 6

usemtl BuildingRoof
# Roof (top face)
f 7 8 9 10 11 12