# 3D ULPIN Building Export (Local Metric Units)
# Building ID: bldg-shiva-shakti-mandir-001
# Height: 7.5m

o bldg-shiva-shakti-mandir-001

v -63.206 0.000 103.420
v -63.206 0.000 23.953
v -13.383 0.000 23.953
v -11.423 0.000 -19.280
v -63.206 0.000 -46.550
v -60.066 0.000 -89.782
v 137.245 0.000 -95.630
v 137.245 0.000 99.916
v -63.206 7.500 103.420
v -63.206 7.500 23.953
v -13.383 7.500 23.953
v -11.423 7.500 -19.280
v -63.206 7.500 -46.550
v -60.066 7.500 -89.782
v 137.245 7.500 -95.630
v 137.245 7.500 99.916

# Walls (side faces)
f 1 2 10 9
f 2 3 11 10
f 3 4 12 11
f 4 5 13 12
f 5 6 14 13
f 6 7 15 14
f 7 8 16 15
f 8 1 9 16
# Floor (ground face)
f 1 2 3 4 5 6 7 8
# Roof (top face)
f 9 10 11 12 13 14 15 16